<mxfile host="app.diagrams.net" modified="2024-07-23T11:33:53.750Z" agent="Mozilla/5.0 (Windows NT 10.0; Win64; x64) AppleWebKit/537.36 (KHTML, like Gecko) Chrome/126.0.0.0 Safari/537.36 OPR/112.0.0.0" version="24.7.1" etag="C-WyKXW3slXjXexHeJdN" type="github">
  <diagram name="第 1 页" id="-T8tbtoBnxd362Q8ESzT">
    <mxGraphModel>
      <root>
        <mxCell id="0" />
        <mxCell id="1" parent="0" />
      </root>
    </mxGraphModel>
  </diagram>
</mxfile>
